# xmcd
#
# Track frame offsets:
#	150
#	70568
#	94423
#	131906
#	145332
#
# Disc length: 2495 seconds
#
# Revision: 0
# Processed by: cddbd v1.5.2PL0 Copyright (c) Steve Scherf et al.
# Submitted via: audiograbber 1.83.01
#
DISCID=4809bd05
DTITLE=Grateful Dead - 94-03-21 Richfield Coliseum, Richfield OH
DYEAR=1900
DGENRE=
TTITLE0=Space
TTITLE1=Turn On Your Lovelight
TTITLE2=Stella Blue
TTITLE3=Turn On Your Lovelight
TTITLE4=Liberty
EXTD=
EXTT0=
EXTT1=
EXTT2=
EXTT3=
EXTT4=
PLAYORDER=
